<svg id="right-wrong" xmlns="http://www.w3.org/2000/svg" width="50.62" height="50.62" viewBox="0 0 50.62 50.62">
  <path id="Path_2" data-name="Path 2" d="M25.31,0A25.31,25.31,0,1,1,0,25.31,25.308,25.308,0,0,1,25.31,0ZM14.11,25.98a2.917,2.917,0,0,1,4.36-2,3.632,3.632,0,0,1,.46.34l.01.01c.8.76,1.69,1.56,2.57,2.34l.76.68,9-9.44A3.135,3.135,0,0,1,33,16.82a2.911,2.911,0,0,1,2.74,4.83L24.54,33.41a2.927,2.927,0,0,1-4.08.15c-.65-.6-1.36-1.22-2.07-1.84-1.24-1.08-2.5-2.18-3.53-3.26a2.926,2.926,0,0,1-.75-2.48Z" fill="#6bbe66" fill-rule="evenodd"/>
</svg>
